{
  "source": "C:\\Users\\Peter\\Desktop\\stuff\\MIUN\\quantitative_research\\video_compression\\videos\\BVI-HD\\BVI-HD_CDVL_videos\\ORIG\\Hamster_1920x1080_60fps.mp4",
  "output": "C:\\Users\\Peter\\Desktop\\stuff\\MIUN\\quantitative_research\\video_compression\\compressed_videos\\BVI-HD\\h264\\1\\Hamster_1920x1080_60fps_h264.mp4",
  "codec": "h264",
  "ok": "Input #0, mov,mp4,m4a,3gp,3g2,mj2, from 'C:\\Users\\Peter\\Desktop\\stuff\\MIUN\\quantitative_research\\video_compression\\videos\\BVI-HD\\BVI-HD_CDVL_videos\\ORIG\\Hamster_1920x1080_60fps.mp4':\n  Metadata:\n    major_brand     : isom\n    minor_version   : 512\n    compatible_brands: isomiso2avc1mp41\n    encoder         : Lavf54.28.101\n  Duration: 00:00:05.00, start: 0.000000, bitrate: 208485 kb/s\n  Stream #0:0[0x1](und): Video: h264 (High 4:4:4 Predictive) (avc1 / 0x31637661), yuv420p(progressive), 1920x1080, 208481 kb/s, 60 fps, 60 tbr, 60 tbn (default)\n    Metadata:\n      handler_name    : VideoHandler\n      vendor_id       : [0][0][0][0]\n[out#0/mp4 @ 0000018be2109bc0] Codec AVOption b:a (set bitrate (in bits/s)) has not been used for any stream. The most likely reason is either wrong type (e.g. a video option with no video streams) or that it is a private option of some decoder which was not actually used for any stream.\nStream mapping:\n  Stream #0:0 -> #0:0 (h264 (native) -> h264 (libx264))\nPress [q] to stop, [?] for help\n[libx264 @ 0000018be28cac40] using cpu capabilities: MMX2 SSE2Fast SSSE3 SSE4.2 AVX FMA3 BMI2 AVX2\n[libx264 @ 0000018be28cac40] profile High, level 5.0, 4:2:0, 8-bit\n[libx264 @ 0000018be28cac40] 264 - core 165 r3222 b35605a - H.264/MPEG-4 AVC codec - Copyleft 2003-2025 - http://www.videolan.org/x264.html - options: cabac=1 ref=5 deblock=1:0:0 analyse=0x3:0x113 me=hex subme=8 psy=1 psy_rd=1.00:0.00 mixed_ref=1 me_range=16 chroma_me=1 trellis=2 8x8dct=1 cqm=0 deadzone=21,11 fast_pskip=1 chroma_qp_offset=-2 threads=18 lookahead_threads=3 sliced_threads=0 nr=0 decimate=1 interlaced=0 bluray_compat=0 constrained_intra=0 bframes=3 b_pyramid=2 b_adapt=1 b_bias=0 direct=3 weightb=1 open_gop=0 weightp=2 keyint=250 keyint_min=25 scenecut=40 intra_refresh=0 rc_lookahead=50 rc=cbr mbtree=1 bitrate=1000 ratetol=1.0 qcomp=0.60 qpmin=0 qpmax=69 qpstep=4 vbv_maxrate=1000 vbv_bufsize=1000 nal_hrd=none filler=0 ip_ratio=1.40 aq=1:1.00\nOutput #0, mp4, to 'C:\\Users\\Peter\\Desktop\\stuff\\MIUN\\quantitative_research\\video_compression\\compressed_videos\\BVI-HD\\h264\\1\\Hamster_1920x1080_60fps_h264.mp4':\n  Metadata:\n    major_brand     : isom\n    minor_version   : 512\n    compatible_brands: isomiso2avc1mp41\n    encoder         : Lavf62.3.100\n  Stream #0:0(und): Video: h264 (avc1 / 0x31637661), yuv420p(tv, progressive), 1920x1080, q=2-31, 1000 kb/s, 60 fps, 15360 tbn (default)\n    Metadata:\n      encoder         : Lavc62.11.100 libx264\n      handler_name    : VideoHandler\n      vendor_id       : [0][0][0][0]\n    Side data:\n      cpb: bitrate max/min/avg: 1000000/0/1000000 buffer size: 1000000 vbv_delay: N/A\nframe=    0 fps=0.0 q=0.0 size=       0KiB time=N/A bitrate=N/A speed=N/A elapsed=0:00:00.53    \nframe=    0 fps=0.0 q=0.0 size=       0KiB time=N/A bitrate=N/A speed=N/A elapsed=0:00:01.22    \nframe=    0 fps=0.0 q=0.0 size=       0KiB time=N/A bitrate=N/A speed=N/A elapsed=0:00:01.82    \nframe=   16 fps=6.6 q=47.0 size=       0KiB time=00:00:00.23 bitrate=   1.6kbits/s speed=0.0963x elapsed=0:00:02.42    \nframe=   44 fps= 14 q=48.0 size=       0KiB time=00:00:00.56 bitrate=   0.7kbits/s speed=0.186x elapsed=0:00:03.04    \nframe=   72 fps= 20 q=47.0 size=       0KiB time=00:00:01.10 bitrate=   0.3kbits/s speed=0.301x elapsed=0:00:03.65    \nframe=  100 fps= 23 q=48.0 size=       0KiB time=00:00:01.56 bitrate=   0.2kbits/s speed=0.367x elapsed=0:00:04.26    \nframe=  128 fps= 26 q=49.0 size=     256KiB time=00:00:02.03 bitrate=1031.6kbits/s speed=0.412x elapsed=0:00:04.93    \nframe=  148 fps= 27 q=49.0 size=     256KiB time=00:00:02.36 bitrate= 886.3kbits/s speed=0.429x elapsed=0:00:05.52    \nframe=  172 fps= 28 q=49.0 size=     256KiB time=00:00:02.83 bitrate= 740.3kbits/s speed=0.464x elapsed=0:00:06.10    \nframe=  196 fps= 29 q=50.0 size=     256KiB time=00:00:03.23 bitrate= 648.7kbits/s speed=0.478x elapsed=0:00:06.76    \nframe=  226 fps= 31 q=51.0 size=     256KiB time=00:00:03.73 bitrate= 561.8kbits/s speed=0.506x elapsed=0:00:07.37    \nframe=  259 fps= 32 q=51.0 size=     512KiB time=00:00:04.13 bitrate=1014.8kbits/s speed=0.517x elapsed=0:00:07.99    \n[mp4 @ 0000018be21114c0] Starting second pass: moving the moov atom to the beginning of the file\n[out#0/mp4 @ 0000018be2109bc0] video:613KiB audio:0KiB subtitle:0KiB other streams:0KiB global headers:0KiB muxing overhead: 0.706785%\nframe=  300 fps= 35 q=-1.0 Lsize=     618KiB time=00:00:04.96 bitrate=1018.8kbits/s speed=0.579x elapsed=0:00:08.58    \n[libx264 @ 0000018be28cac40] frame I:2     Avg QP:41.43  size: 12002\n[libx264 @ 0000018be28cac40] frame P:76    Avg QP:45.78  size:  3472\n[libx264 @ 0000018be28cac40] frame B:222   Avg QP:49.65  size:  1529\n[libx264 @ 0000018be28cac40] consecutive B-frames:  1.0%  0.0%  3.0% 96.0%\n[libx264 @ 0000018be28cac40] mb I  I16..4: 14.8% 83.9%  1.3%\n[libx264 @ 0000018be28cac40] mb P  I16..4:  4.1%  9.4%  0.0%  P16..4: 10.1%  0.2%  0.3%  0.0%  0.0%    skip:75.8%\n[libx264 @ 0000018be28cac40] mb B  I16..4:  0.4%  0.4%  0.0%  B16..8: 11.0%  0.2%  0.0%  direct: 0.3%  skip:87.7%  L0:52.6% L1:46.9% BI: 0.5%\n[libx264 @ 0000018be28cac40] 8x8 transform intra:69.6% inter:99.3%\n[libx264 @ 0000018be28cac40] direct mvs  spatial:95.5% temporal:4.5%\n[libx264 @ 0000018be28cac40] coded y,uvDC,uvAC intra: 5.0% 29.2% 1.5% inter: 0.2% 2.2% 0.0%\n[libx264 @ 0000018be28cac40] i16 v,h,dc,p: 37% 31%  6% 25%\n[libx264 @ 0000018be28cac40] i8 v,h,dc,ddl,ddr,vr,hd,vl,hu: 14%  6% 68%  2%  2%  2%  2%  1%  2%\n[libx264 @ 0000018be28cac40] i4 v,h,dc,ddl,ddr,vr,hd,vl,hu: 19% 16% 23% 17%  6%  5%  5%  4%  4%\n[libx264 @ 0000018be28cac40] i8c dc,h,v,p: 87%  7%  5%  1%\n[libx264 @ 0000018be28cac40] Weighted P-Frames: Y:0.0% UV:0.0%\n[libx264 @ 0000018be28cac40] ref P L0: 51.5%  2.0% 24.6% 10.7% 11.3%\n[libx264 @ 0000018be28cac40] ref B L0: 67.4% 20.6%  9.7%  2.3%\n[libx264 @ 0000018be28cac40] ref B L1: 87.9% 12.1%\n[libx264 @ 0000018be28cac40] kb/s:1003.67\n",
  "seconds": 9.212469816207886,
  "probe_out": {}
}